<mxfile host="app.diagrams.net" modified="2023-04-28T09:12:34.069Z" agent="Mozilla/5.0 (Windows NT 10.0; Win64; x64; rv:109.0) Gecko/20100101 Firefox/112.0" version="21.2.3" etag="7nodRO6-zhmQucLMbrLz" type="github">
  <diagram name="Page-1" id="Z0EBqAD_I1933JuPe8sk">
    <mxGraphModel>
      <root>
        <mxCell id="0" />
        <mxCell id="1" parent="0" />
      </root>
    </mxGraphModel>
  </diagram>
</mxfile>
